<?xml version="1.0" encoding="UTF-8" standalone="no"?>
<!-- Created with Inkscape (http://www.inkscape.org/) -->

<svg
   xmlns:dc="http://purl.org/dc/elements/1.1/"
   xmlns:cc="http://creativecommons.org/ns#"
   xmlns:rdf="http://www.w3.org/1999/02/22-rdf-syntax-ns#"
   xmlns:svg="http://www.w3.org/2000/svg"
   xmlns="http://www.w3.org/2000/svg"
   xmlns:sodipodi="http://sodipodi.sourceforge.net/DTD/sodipodi-0.dtd"
   xmlns:inkscape="http://www.inkscape.org/namespaces/inkscape"
   width="3840"
   height="1080"
   viewBox="0 0 1016 285.75001"
   version="1.1"
   id="svg8"
   inkscape:version="0.92.1 r15371"
   sodipodi:docname="wish_you_were_here.svg"
   inkscape:export-filename="E:\General\My Projects\Art\Wallpapers\3840x1080\Pink Floyd\wish_you_were_here.png"
   inkscape:export-xdpi="96"
   inkscape:export-ydpi="96">
  <defs
     id="defs2">
    <inkscape:path-effect
       effect="perspective-envelope"
       up_left_point="168.55534,-104.37578"
       up_right_point="669.90738,-33.334937"
       down_left_point="186.32022,-73.19274"
       down_right_point="668.76542,45.887528"
       id="path-effect5341"
       is_visible="true"
       deform_type="perspective"
       horizontal_mirror="false"
       vertical_mirror="false"
       overflow_perspective="false" />
    <inkscape:path-effect
       effect="perspective-envelope"
       up_left_point="216.90803,-156.85138"
       up_right_point="718.26007,-85.810537"
       down_left_point="234.67291,-125.66834"
       down_right_point="717.11811,-6.5880721"
       id="path-effect5253"
       is_visible="true"
       deform_type="perspective"
       horizontal_mirror="false"
       vertical_mirror="false"
       overflow_perspective="false" />
    <inkscape:path-effect
       effect="perspective-envelope"
       up_left_point="410.66723,317.76271"
       up_right_point="1197.8388,317.76271"
       down_left_point="410.66723,376.14"
       down_right_point="1197.8388,376.13815"
       id="path-effect5216"
       is_visible="true"
       deform_type="perspective"
       horizontal_mirror="false"
       vertical_mirror="false"
       overflow_perspective="false" />
    <inkscape:path-effect
       effect="construct_grid"
       id="path-effect5214"
       is_visible="true"
       nr_x="5"
       nr_y="5" />
    <inkscape:path-effect
       effect="bounding_box"
       id="path-effect5202"
       is_visible="true"
       linkedpath=""
       visualbounds="false" />
    <inkscape:path-effect
       effect="bend_path"
       id="path-effect5200"
       is_visible="true"
       bendpath="M 410.66723,346.95043 H 1197.8388"
       prop_scale="1"
       scale_y_rel="false"
       vertical="false" />
    <inkscape:path-effect
       effect="lattice2"
       gridpoint0="410.66723,317.76271"
       gridpoint1="1197.8388,317.76271"
       gridpoint2="410.66723,376.13815"
       gridpoint3="1197.8388,376.13815"
       gridpoint4="607.46012,317.76271"
       gridpoint5="1001.0459,317.76271"
       gridpoint6="607.46012,376.13815"
       gridpoint7="1001.0459,376.13815"
       gridpoint8x9="804.25302,317.76271"
       gridpoint10x11="804.25302,376.13815"
       gridpoint12="410.66723,332.35657"
       gridpoint13="1197.8388,332.35657"
       gridpoint14="410.66723,361.54429"
       gridpoint15="1197.8388,361.54429"
       gridpoint16="607.46012,332.35657"
       gridpoint17="1001.0459,332.35657"
       gridpoint18="607.46012,361.54429"
       gridpoint19="1001.0459,361.54429"
       gridpoint20x21="804.25302,332.35657"
       gridpoint22x23="804.25302,361.54429"
       gridpoint24x26="410.66723,346.95043"
       gridpoint25x27="1197.8388,346.95043"
       gridpoint28x30="607.46012,346.95043"
       gridpoint29x31="1001.0459,346.95043"
       gridpoint32x33x34x35="804.25302,346.95043"
       id="path-effect5198"
       is_visible="true"
       horizontal_mirror="false"
       vertical_mirror="false"
       live_update="true" />
    <inkscape:path-effect
       effect="envelope"
       id="path-effect5196"
       is_visible="true"
       yy="true"
       xx="true"
       bendpath1="M 410.66723,317.76271 H 1197.8388"
       bendpath2="m 1197.8388,317.76271 v 58.37544"
       bendpath3="M 410.66723,376.13815 H 1197.8388"
       bendpath4="m 410.66723,317.76271 v 58.37544" />
    <inkscape:path-effect
       effect="bounding_box"
       id="path-effect5194"
       is_visible="true"
       linkedpath=""
       visualbounds="false" />
    <inkscape:path-effect
       effect="bend_path"
       id="path-effect5192"
       is_visible="true"
       bendpath="m 702.52556,247.52616 495.31324,99.42427"
       prop_scale="1"
       scale_y_rel="false"
       vertical="false"
       bendpath-nodetypes="cc" />
    <inkscape:path-effect
       effect="bspline"
       id="path-effect5190"
       is_visible="true"
       weight="33.333333"
       steps="2"
       helper_size="0"
       apply_no_weight="true"
       apply_with_weight="true"
       only_selected="false" />
    <inkscape:path-effect
       effect="bspline"
       id="path-effect5188"
       is_visible="true"
       weight="33.333333"
       steps="2"
       helper_size="0"
       apply_no_weight="true"
       apply_with_weight="true"
       only_selected="false" />
    <inkscape:path-effect
       effect="bounding_box"
       id="path-effect5186"
       is_visible="true"
       linkedpath=""
       visualbounds="false" />
    <inkscape:path-effect
       effect="perspective-envelope"
       up_left_point="168.55534,-104.37578"
       up_right_point="669.90738,-33.334937"
       down_left_point="186.32022,-73.19274"
       down_right_point="668.76542,45.887528"
       id="path-effect5341-3"
       is_visible="true"
       deform_type="perspective"
       horizontal_mirror="false"
       vertical_mirror="false"
       overflow_perspective="false" />
  </defs>
  <sodipodi:namedview
     id="base"
     pagecolor="#3a3a3a"
     bordercolor="#666666"
     borderopacity="1.0"
     inkscape:pageopacity="1"
     inkscape:pageshadow="2"
     inkscape:zoom="0.7"
     inkscape:cx="1474.2937"
     inkscape:cy="545.61965"
     inkscape:document-units="px"
     inkscape:current-layer="layer1"
     showgrid="false"
     units="px"
     inkscape:object-paths="true"
     inkscape:snap-intersection-paths="true"
     inkscape:snap-nodes="false"
     inkscape:window-width="1920"
     inkscape:window-height="1017"
     inkscape:window-x="-8"
     inkscape:window-y="-8"
     inkscape:window-maximized="1"
     inkscape:measure-start="0,0"
     inkscape:measure-end="0,0"
     inkscape:lockguides="true" />
  <metadata
     id="metadata5">
    <rdf:RDF>
      <cc:Work
         rdf:about="">
        <dc:format>image/svg+xml</dc:format>
        <dc:type
           rdf:resource="http://purl.org/dc/dcmitype/StillImage" />
        <dc:title />
      </cc:Work>
    </rdf:RDF>
  </metadata>
  <g
     inkscape:label="Layer 1"
     inkscape:groupmode="layer"
     id="layer1"
     transform="translate(0,-11.249983)">
    <g
       id="g4679"
       transform="translate(8.3154762,6.8791671)">
      <path
         sodipodi:nodetypes="ccccccccccccccccccccccccccccccccccccccccccccccccccccccccccccccccccccccccccccccccccccccccccccccccccccccccccccccccccccccccc"
         inkscape:connector-curvature="0"
         id="path4530"
         d="m 439.77219,74.946793 -0.59574,0.954208 -1.42995,-0.477107 -4.64854,3.455744 -0.23854,1.430001 -2.50283,0.597037 0.47707,2.740079 -1.42995,0.954209 v 6.79286 l -1.31142,3.098559 1.43002,3.218495 0.83428,2.741392 h 1.19148 l 1.88754,0.85643 c 10.22646,-0.15654 11.407,4.04893 14.25703,6.92452 l 1.49389,-1.58382 h 1.78716 l 1.7885,-1.54863 -0.59575,-2.02704 -2.62277,-0.23725 -1.90709,-3.814222 -0.59575,1.311382 -4.05146,-2.861312 2.86005,-2.025737 -0.11994,-2.860008 1.54996,-1.311387 -0.95295,-1.430008 0.95295,-1.54993 1.54989,0.477101 0.23727,-1.191451 1.43129,0.118621 2.2643,0.477101 3.21718,-3.098559 0.11993,-3.099874 -2.26557,-3.574358 -2.3829,-0.83428 -0.95421,-1.668558 -5.00568,-0.954208 z m -5.20383,27.142747 c -1.01435,-4e-4 -2.00287,0.092 -2.94474,0.25289 l -2.69705,3.03339 -8.84857,5.56229 -2.10785,2.7818 -0.92685,0.67394 -2.27472,8.0899 0.25289,4.88836 -1.85497,9.18619 0.50584,6.91018 0.33758,8.68041 3.53915,20.56368 1.2645,-0.16947 2.10652,-30.25434 -0.92678,31.09775 -1.17974,11.46091 4.71888,0.50578 0.42101,4.80362 -1.85363,8.17463 1.09631,4.97309 -1.26444,4.63416 -0.84342,6.32096 -1.68551,4.97179 -0.25289,3.6239 -1.01028,6.48912 -0.50577,10.95643 -1.77021,19.04633 -0.75872,8.51095 0.67396,1.68551 2.02316,1.09629 17.95002,1.34788 30.7614,0.84341 2.19128,-3.20285 -0.50577,-2.27602 -9.27091,-1.76893 -2.10659,-3.54047 -0.0847,-8.42752 -4.97177,-8.42753 4.71888,-53.17747 0.16946,-5.73045 7.75225,-0.42105 -1.51605,-13.39931 -0.84335,-12.97825 -2.35948,-14.4956 5.05653,3.96022 11.71382,5.64703 10.53534,4.97178 2.86525,-2.10656 0.82513,-2.24994 5.11834,2.08123 3.62317,1.02515 2.85891,-0.17858 1.07282,-1.72722 0.83427,-0.11993 0.71568,-1.19146 v -0.77431 l 0.77428,-0.17989 0.71568,-1.19145 -0.41714,-1.43001 0.2972,-0.41714 0.35721,-0.4771 -0.17861,-1.07284 -5.36287,-2.20432 -0.59575,-1.96707 -1.90709,-1.37004 -3.33712,0.59572 -2.19255,3.49485 -10.78696,-3.70863 -16.09638,-9.94356 -4.55076,-7.50069 -1.17974,-4.04495 -1.09624,-1.9384 0.33758,-1.77023 -8.0899,-7.24781 -4.07756,-2.55888 c -3.67349,-5.54777 -8.55503,-7.29954 -12.95088,-7.30125 z m 0.59448,132.39618 0.33758,26.63045 -1.18101,-0.42105 -0.33631,-6.48913 -1.3492,-1.77024 z"
         style="fill:#000000;stroke:none;stroke-width:0.66742325px;stroke-linecap:butt;stroke-linejoin:miter;stroke-opacity:1" />
      <path
         sodipodi:nodetypes="ccccc"
         inkscape:connector-curvature="0"
         id="path4532"
         d="m 451.42213,94.194972 c -0.29481,-0.953446 -0.21316,-1.906918 -0.11907,-2.860364 0.23157,-0.781837 0.81322,-1.512745 1.81752,-2.08569 0.23031,1.796203 0.18819,3.541904 -1.69843,4.946054 z"
         style="fill:#000000;stroke:none;stroke-width:0.66742325px;stroke-linecap:butt;stroke-linejoin:miter;stroke-opacity:1" />
      <rect
         y="91.007545"
         x="445.73917"
         height="0.50564951"
         width="5.941381"
         id="rect4534"
         style="opacity:1;vector-effect:none;fill:#000000;fill-opacity:1;stroke:none;stroke-width:5.00567436;stroke-linecap:butt;stroke-linejoin:miter;stroke-miterlimit:4;stroke-dasharray:none;stroke-dashoffset:0;stroke-opacity:1" />
      <path
         inkscape:connector-curvature="0"
         id="path4536"
         d="m 452.67354,96.34027 -0.4469,-0.715091 2.17507,0.357545 z"
         style="fill:#000000;stroke:none;stroke-width:0.66742325px;stroke-linecap:butt;stroke-linejoin:miter;stroke-opacity:1" />
    </g>
    <g
       id="g4673"
       transform="translate(-5.8208337,6.8791671)">
      <path
         sodipodi:nodetypes="cccccccccccccccccccccccccccccccccccccccccccccccccc"
         inkscape:connector-curvature="0"
         id="path4586"
         d="m 530.6606,138.20273 -0.47495,-2.40659 1.00955,0.86496 -0.0434,-3.05261 0.84276,0.84276 -0.33706,-2.27541 1.3484,-0.25284 0.25281,-1.93832 -2.52827,-0.92703 -1.2641,1.68551 -1.26415,-0.92703 0.84276,0.25283 1.09557,-2.44397 1.3484,0.33709 0.50564,-5.56213 -1.60123,-0.50567 -0.0843,-1.51694 -1.85409,1.17985 1.51698,-2.19116 1.3484,-1.26412 1.2641,0.84275 2.27543,-0.58992 0.50565,-1.17984 1.4327,-0.58992 v -1.7698 l 1.43263,-0.0842 -0.33706,-1.93832 1.68551,2.69677 -1.93832,2.35972 0.42134,1.17984 0.84276,0.25284 -1.3484,3.37097 1.60121,1.01132 0.1685,2.6968 2.02263,0.58992 -0.58995,-3.03391 1.76982,3.11817 1.17979,-0.58993 0.84276,2.19116 1.17987,-1.17984 v -1.76977 l 1.17987,0.33709 2.27539,0.58992 v -2.44397 l 0.84275,1.51696 0.33711,-2.52825 3.21091,3.54343 -9.01874,7.44838 -13.22984,5.78975 z"
         style="fill:#ff7e00;fill-opacity:1;stroke:none;stroke-width:0.66742325px;stroke-linecap:butt;stroke-linejoin:miter;stroke-opacity:1" />
      <path
         sodipodi:nodetypes="cccccccccccccccccccccccccccccccccccccccccccccccccccccccccccccccccccccccccccccccccc"
         inkscape:connector-curvature="0"
         id="path4571"
         d="m 519.0881,144.72847 -4.17138,-0.89388 -2.1453,1.3706 -0.17885,1.19182 -3.09877,2.38368 -0.35754,1.60896 1.07268,0.6555 -0.71514,1.78773 1.3706,0.41715 0.0595,2.26447 0.89389,0.29796 1.66856,1.66856 9.77295,-4.1118 0.71514,0.23838 15.49369,-5.00568 11.02443,-4.17138 v 4.70772 l -0.17885,3.03914 -3.75425,7.56811 0.83428,1.60898 -3.51584,19.248 7.15095,1.43018 1.48977,15.43416 1.54935,12.63339 1.19187,4.52895 2.50285,8.70033 v 10.01135 l -1.90697,14.77865 -2.50282,8.70033 -0.9535,3.57548 v 2.50285 l -9.05785,2.50284 -1.78778,1.78773 -0.71506,1.4302 0.71506,0.95345 25.74353,2.1453 -1.66856,1.43018 0.59587,0.95347 4.2906,0.59593 10.24968,0.23838 6.91265,-2.26446 3.0987,-0.23839 2.97957,-0.95344 0.11932,-5.36323 4.52893,-0.71509 -3.45632,-11.67992 -1.7877,-21.21452 -4.52893,-17.04314 -3.69472,-10.60725 -0.83428,-13.70602 1.19188,-3.81383 3.33712,-2.97958 2.86039,-0.47674 2.1453,-4.76731 -3.81386,-9.17706 -1.19183,-10.01135 c 0,0 0.23838,-3.33713 0.35755,-4.05222 0.11906,-0.71509 0.83428,-5.24404 0.83428,-5.24404 l 1.54935,-1.54937 1.54934,-1.90692 2.02611,-8.93871 2.1453,-13.94437 -0.11906,-6.67423 -1.07269,-3.21793 -3.81384,-3.21794 -4.1714,-2.62203 -1.19183,-2.50282 c -6.29175,-0.82389 -12.53001,2.94608 -14.89782,6.67422 l -0.95347,-5.12485 -2.1453,-0.95347 -2.62198,2.50284 -0.59593,2.02611 -0.71509,-0.83428 -1.1918,2.02611 -4.529,5.60159 -2.50284,5.36323 -9.41543,8.34279 -1.90689,1.31099 -15.25541,6.9126 -6.79344,2.7412 -4.29052,0.95347 z"
         style="fill:#000000;stroke:none;stroke-width:0.66742325px;stroke-linecap:butt;stroke-linejoin:miter;stroke-opacity:1" />
      <path
         sodipodi:nodetypes="ccccccccccccccccccccccccccccccccccccccccccccccccccccccccccccccccccccccc"
         inkscape:connector-curvature="0"
         id="path4573"
         d="m 574.9854,84.422374 -1.19275,2.800055 -0.1786,2.26428 0.39758,1.127585 -0.99332,-0.710446 -2.0857,0.119929 -1.78716,-2.025729 -1.72856,1.965768 -0.41714,2.502837 0.89428,1.72852 -2.20563,2.621465 -1.01288,-0.535768 0.3572,-1.13279 -0.83428,-0.714357 0.53701,-1.907108 0.77435,0.477107 0.95421,-1.251418 0.53574,-1.549937 -1.66856,-1.191458 -1.66856,0.714357 0.23854,1.251418 -2.0857,2.68142 -0.47707,1.431316 0.47707,0.834279 1.37009,0.892939 -0.3572,1.31138 0.59574,0.9529 -0.41714,0.597037 0.29854,0.417135 -0.17994,1.72722 0.2386,1.6099 1.31136,0.59572 5.89988,1.96578 1.15425,1.13703 c 4.47807,-3.5332 5.20223,-4.93006 13.09724,-5.48859 l 0.3484,1.49154 1.07288,1.01287 1.19142,0.11862 0.1786,1.6099 1.9071,1.01287 0.41714,-1.6086 -0.23854,-5.00567 0.29854,-3.099871 -0.35848,-2.442869 -3.63438,2.384209 0.95294,-3.754255 0.17861,-1.489969 -0.89295,1.31138 -1.72856,-1.609899 0.71434,1.311387 0.47715,1.96707 -0.83428,1.787186 -0.83428,-3.992807 -2.44291,-0.417139 0.17861,-1.430008 -1.31136,2.085698 2.68271,0.298512 0.1786,2.264286 -1.37135,0.71435 -0.0587,-1.19145 -1.01289,0.118621 -0.59701,-1.310079 -0.5358,-0.05993 -0.47708,-3.814224 -2.68144,-1.191451 3.75426,-0.65569 3.09858,1.788481 -2.86004,-2.861317 -4.64847,0.834279 -0.71435,-0.65569 z"
         style="fill:#000000;stroke:none;stroke-width:0.66742325px;stroke-linecap:butt;stroke-linejoin:miter;stroke-opacity:1" />
      <path
         inkscape:connector-curvature="0"
         id="path4575"
         d="m 564.07957,80.667751 -0.53627,2.145298 1.72815,2.145273 2.08571,0.476736 1.43016,1.132244 0.59593,0.893863 1.01303,-0.178848 0.59592,0.953471 0.9535,-0.297963 1.54934,-2.443261 -1.2514,-1.728144 0.83428,-1.787728 -1.84736,-2.383653 -1.66857,1.370599 -2.26443,-0.23838 -1.37063,-1.9665 -0.29794,2.145273 -1.07268,0.536343 z"
         style="fill:#000000;stroke:none;stroke-width:0.66742325px;stroke-linecap:butt;stroke-linejoin:miter;stroke-opacity:1" />
      <path
         inkscape:connector-curvature="0"
         id="path4577"
         d="m 574.50805,84.064458 -0.23838,-2.860389 -0.89387,-1.549372 -0.95349,-1.191826 2.32409,-1.430182 -0.29793,1.9665 1.7877,-0.774674 0.35754,1.310992 4.35021,-0.834281 -4.17141,1.966525 -0.11906,1.549372 1.90694,1.132244 c 0,0 0.95342,1.072637 1.07261,1.311017 0.11932,0.238381 2.1453,0.417128 2.1453,0.417128 l 0.17885,-2.800806 h -1.78778 l -0.71507,-1.608955 2.50285,0.357546 0.65546,1.370599 v -2.204881 l 0.65548,-0.417128 0.17885,1.310992 1.01308,0.953471 0.0595,1.549372 -1.25141,-0.953471 -0.41715,1.311017 0.17884,1.60898 -2.14529,1.132219 -1.48977,-0.834282 -1.01308,-0.71509 -0.35754,0.834281 -1.43024,0.297963 0.47677,-1.191827 -1.19183,-1.906917 -0.77467,-0.238381 z"
         style="fill:#000000;stroke:none;stroke-width:0.66742325px;stroke-linecap:butt;stroke-linejoin:miter;stroke-opacity:1" />
      <path
         inkscape:connector-curvature="0"
         id="path4579"
         d="m 569.08526,77.211462 -0.17885,2.026107 2.50284,-0.119064 -1.43023,-1.072661 z"
         style="fill:#000000;stroke:none;stroke-width:0.66742325px;stroke-linecap:butt;stroke-linejoin:miter;stroke-opacity:1" />
      <path
         inkscape:connector-curvature="0"
         id="path4581"
         d="m 567.53589,77.271044 -1.31102,1.013054 1.07269,1.608954 z"
         style="fill:#000000;stroke:none;stroke-width:0.66742325px;stroke-linecap:butt;stroke-linejoin:miter;stroke-opacity:1" />
      <path
         sodipodi:nodetypes="cccccccccccccccccccccccccccccccccccccccccccccccccccccccccccccccccccccccccccccccccccccccccccccccccccccccccccccccccccccccccccccccccccccccccccccccccccccccccccccccccccccccccccc"
         inkscape:connector-curvature="0"
         id="path4588"
         d="m 586.2676,81.61088 -0.75846,-1.769767 -2.19116,-1.601235 2.94962,1.011313 0.92703,-2.865358 0.50564,1.854045 1.60122,-0.674201 0.67425,2.78108 -0.16851,-4.803681 2.10685,2.275436 0.84276,-1.938323 -0.33704,-2.275436 2.27539,1.938323 1.26415,-0.842732 0.92698,1.685489 0.58995,-0.25281 0.25281,2.949612 1.2641,-1.854045 0.84275,2.696801 1.60129,1.011289 v 1.095566 l 1.93827,-0.842732 -0.0842,1.179845 -1.4327,1.60121 1.01128,0.842757 0.92706,-1.264123 -2.02262,4.382291 h 0.84273 l -0.42134,2.106879 -0.42139,1.601236 -0.0843,1.685488 1.76975,-1.432679 2.86538,-2.949611 -0.75853,-1.516957 -0.25281,-2.10688 1.09557,1.348401 1.3484,1.854045 -0.42134,2.275436 -1.01129,1.938323 1.17982,2.275411 -1.68552,2.275436 -0.25283,1.60121 -1.09557,0.927035 0.33712,0.927013 -1.76975,0.0842 -1.01133,-1.011288 0.0842,2.443968 0.67422,1.85404 0.0843,1.68552 2.69677,0.67417 3.11822,-1.93832 -0.1685,1.26415 1.01128,1.68549 0.0843,1.26412 0.92698,1.17984 1.68552,-0.58992 -0.92704,-2.10688 1.8541,1.17985 1.93827,-0.25281 0.50569,1.3484 1.01129,-0.16851 -0.0842,2.10688 0.58992,0.25281 -1.76979,1.26412 1.09557,2.02261 1.76981,0.0842 0.25281,-2.0226 1.68552,3.53956 -2.27544,1.76976 -1.2641,2.27544 1.1798,0.58992 -2.27539,1.85405 -1.09557,-1.0956 1.17987,4.12949 -3.37102,-0.50565 -0.50565,2.10688 -1.60121,0.16851 -2.02262,1.76979 -1.43268,-1.09559 -1.01129,3.28672 -2.86531,-1.26412 -1.3484,-0.84276 -0.84276,0.58992 -0.92706,4.71941 1.43271,1.17984 0.42134,1.17985 1.60121,-1.85405 1.09559,0.92704 0.67422,-2.0226 1.85402,0.84275 0.75848,-1.17984 2.27544,0.6742 -2.86538,1.09556 0.0842,1.43268 -4.46659,1.51694 -3.45526,1.93832 0.67423,1.93832 -0.92704,2.0226 -1.01129,0.25284 -1.76982,1.3484 2.78111,1.51693 1.51698,-1.76977 -0.58994,2.86534 -2.27544,0.0843 -1.3484,1.09559 -1.60121,-1.43268 -1.68552,1.43268 -0.42134,1.85405 -0.33711,1.60121 -1.76977,-1.76977 -0.0842,2.61252 2.94961,2.35969 1.68552,-0.42136 1.09556,4.88796 0.50565,3.9609 v 2.6968 l -2.35974,1.3484 -1.1798,2.44397 2.10686,3.79236 -0.92706,3.20245 h -2.02255 l 1.01126,1.76977 -0.92699,2.6968 -3.62383,-0.92701 2.78108,-1.51696 -1.93833,-3.45525 -2.94961,2.61249 -2.69685,0.16851 -4.97216,4.80368 1.51691,-3.45528 -1.43268,-3.62381 0.75853,-2.44397 -1.0956,-1.68551 h 2.19116 l 2.02255,-1.51693 -1.26409,-3.70812 -0.42142,2.0226 -1.76972,2.27544 1.01127,-2.35972 -0.25281,-2.19113 1.26409,-2.78108 1.43268,-0.6742 0.92706,-6.0678 -2.02262,-1.26413 -2.35967,0.16851 0.84273,-3.79237 9.69159,-3.28672 2.59981,-3.3609 1.02656,-3.5166 1.26668,-6.63211 2.46434,-12.25808 -0.0638,-7.16335 -1.73657,-3.09005 -4.18311,-2.96235 -3.15616,-2.27432 -0.63621,-1.2704 2.8399,-0.45199 1.09557,-2.44397 -0.42139,-4.97223 0.58992,-3.708094 -1.17987,-3.202446 -1.43263,0.674201 -1.34838,1.264122 1.01127,-2.696802 -1.76979,-2.191132 -1.60124,-0.252835 0.50564,-2.191132 1.17987,0.505644 -1.34837,-2.949637 0.50562,-1.769767 0.75848,-1.179844 z"
         style="fill:#ff7e00;fill-opacity:1;stroke:none;stroke-width:0.66742325px;stroke-linecap:butt;stroke-linejoin:miter;stroke-opacity:1" />
      <path
         inkscape:connector-curvature="0"
         id="path4590"
         d="m 588.33326,73.278436 -3.21791,-2.145298 1.54937,-1.191826 0.83426,1.668562 1.48984,0.178848 z"
         style="fill:#ff7e00;fill-opacity:1;stroke:none;stroke-width:0.66742325px;stroke-linecap:butt;stroke-linejoin:miter;stroke-opacity:1" />
      <path
         inkscape:connector-curvature="0"
         id="path4592"
         d="m 587.85652,70.239249 -1.31094,-1.608954 -0.53634,-3.992608 1.78775,-0.536343 1.37055,-2.919972 -1.07261,-1.668562 1.84728,1.966525 -0.95339,3.039162 -0.71515,0.595901 0.53635,2.264488 1.4302,-0.774699 -1.31101,1.430182 v 1.966525 z"
         style="fill:#ff7e00;fill-opacity:1;stroke:none;stroke-width:0.66742325px;stroke-linecap:butt;stroke-linejoin:miter;stroke-opacity:1" />
      <path
         inkscape:connector-curvature="0"
         id="path4594"
         d="m 600.90706,77.092271 -0.71509,-2.264488 1.72817,-1.906917 z"
         style="fill:#ff7e00;fill-opacity:1;stroke:none;stroke-width:0.66742325px;stroke-linecap:butt;stroke-linejoin:miter;stroke-opacity:1" />
      <path
         inkscape:connector-curvature="0"
         id="path4596"
         d="m 606.56828,75.542899 c 0,0 -1.90697,-4.886496 -1.37063,-4.886496 0.53635,0 1.90689,0.297963 1.84729,0.05953 -0.0595,-0.238381 -2.91997,-4.707724 -2.91997,-4.707724 l 2.50284,0.953446 0.71514,-1.608955 0.53627,1.787753 2.91997,-0.655509 1.66856,-2.20488 -0.95339,3.158327 -1.54945,0.953471 1.96657,2.20488 -1.37062,1.966526 2.02611,1.013028 -0.59588,4.350179 1.84729,0.774698 -1.19183,1.25141 -1.48974,0.476735 -1.13229,-2.919971 -2.1453,0.178848 -2.20483,3.57548 -0.59595,-0.715116 h 0.65556 l 1.54934,-3.873418 z"
         style="fill:#ff7e00;fill-opacity:1;stroke:none;stroke-width:0.66742325px;stroke-linecap:butt;stroke-linejoin:miter;stroke-opacity:1" />
      <path
         inkscape:connector-curvature="0"
         id="path4598"
         d="m 618.78446,78.582061 -1.01303,-2.204881 2.62198,-2.085715 -1.37055,-1.906918 2.97958,-2.800781 1.13222,0.417128 2.91997,-0.893863 1.25141,0.357545 0.17885,-2.20488 -2.26444,-2.324071 1.25141,-2.383653 0.11932,2.979579 3.99258,-1.311017 1.48976,1.191827 3.39671,-0.05953 -2.68157,2.026108 -0.35754,1.191827 2.91997,-0.357546 -0.47674,0.834282 -5.7208,2.979579 -2.74117,0.5959 -1.54937,1.668563 1.01302,1.013053 -2.68159,1.25141 -0.11931,1.787752 z"
         style="fill:#ff7e00;fill-opacity:1;stroke:none;stroke-width:0.66742325px;stroke-linecap:butt;stroke-linejoin:miter;stroke-opacity:1" />
      <path
         inkscape:connector-curvature="0"
         id="path4602"
         d="m 551.67276,143.63722 1.222,0.75848 1.93832,-0.6742 0.25284,1.93832 -0.50572,0.71633 1.81192,-1.222 0.46354,-0.54777 0.92704,0.63205 0.80058,-1.51693 3.58173,-0.12638 1.05339,2.35972 -0.0421,-2.61253 3.70807,-0.25283 1.26417,-0.42137 -0.12638,0.92701 1.98045,-0.6742 2.31754,3.62384 2.6125,0.50564 v -2.19116 l -1.85402,-1.05341 0.21063,-1.68551 1.34838,-0.84276 3.03391,0.50567 -0.54782,-0.96916 1.72761,-0.5478 1.93835,0.25281 -1.64333,-2.02258 1.09556,-1.30627 4.97224,3.11817 0.12638,-1.64334 2.06475,0.0421 0.12638,-2.10688 h 1.3905 v -1.64334 l 3.58166,-3.16032 -0.63204,-4.0452 -2.23326,2.78108 -1.39058,-2.44397 -1.05339,1.98045 -1.3484,-0.46352 -0.54782,0.58993 -0.80056,-0.75848 -0.0842,-1.72762 -2.02263,1.89617 -2.44396,-0.71632 0.84275,1.39052 -0.63205,2.0226 2.06473,0.33712 -1.2641,2.10685 c 0,0 -1.43267,-0.0842 -1.60121,-0.37924 -0.1685,-0.29496 -0.25288,-2.44396 -0.25288,-2.44396 l -1.60121,-0.25284 -0.54777,-2.19113 c 0,0 1.17987,-0.58992 1.13769,-0.80061 -0.0421,-0.21063 -0.96916,-1.93832 -0.96916,-1.93832 l -0.96916,0.58992 -1.89615,-1.17984 -0.42141,-2.10688 1.13774,-0.42137 -0.6321,-2.52827 -0.92699,0.58995 -2.06475,-0.63208 -0.37921,-1.85404 1.93832,-2.10688 -2.94961,0.96916 -1.64339,2.06473 0.29494,2.90748 0.88493,1.85405 0.71633,3.11819 -1.26415,1.30625 -0.1685,-1.68549 -0.88489,2.10686 0.75848,1.51695 0.71633,2.61253 -0.16851,2.35969 -0.1685,3.11819 0.75847,0.80061 -1.5591,2.10688 -5.26718,0.42136 -0.29493,0.50565 -0.75846,-0.63205 -2.57037,0.8006 -1.51701,-1.60123 -2.69677,0.96916 c 0,0 -0.0843,0.88491 -0.25284,0.80063 -0.16851,-0.0842 -3.20242,0.12638 -3.20242,0.12638 z"
         style="fill:#ff7e00;fill-opacity:1;stroke:none;stroke-width:0.66742325px;stroke-linecap:butt;stroke-linejoin:miter;stroke-opacity:1" />
      <path
         inkscape:connector-curvature="0"
         id="path4604"
         d="m 568.25098,215.70178 1.31101,5.72078 -1.43015,3.09874 -2.38371,2.26446 5.24407,0.59593 0.9535,3.81383 -2.02619,0.11907 2.02619,2.02611 -0.47676,2.38365 2.0261,-3.33713 2.62204,1.66857 0.23838,2.14529 1.90689,-2.0261 -6.0783,-11.56072 z"
         style="fill:#ff7e00;fill-opacity:1;stroke:none;stroke-width:0.66742325px;stroke-linecap:butt;stroke-linejoin:miter;stroke-opacity:1" />
      <path
         inkscape:connector-curvature="0"
         id="path4606"
         d="m 582.97005,187.9918 1.54937,-0.89389 1.3706,-1.9665 0.9535,1.43019 -1.66856,3.09877 0.65548,1.78772 -0.65548,1.54937 0.65548,1.54938 -0.65548,2.62203 2.2049,1.9665 -2.02618,3.99263 2.86046,0.53632 -0.0595,2.50285 -1.07269,1.2514 1.25141,2.7412 4.46942,0.83428 -2.97958,1.13225 0.65546,1.25141 1.54937,1.3706 1.96655,-0.29797 -1.37062,2.1453 -1.54935,-0.47673 0.41713,4.23098 2.38365,2.02611 -0.0595,3.5159 0.95347,2.68162 -0.95347,1.43018 0.53634,1.96652 -0.0595,3.21794 0.77468,3.03916 -0.35752,1.66854 1.66853,2.97957 0.7747,2.68162 -2.38365,4.05222 1.31101,2.50281 2.08572,1.78776 0.59588,-1.01306 0.53634,2.80081 -1.54937,2.02608 -1.90697,-1.01305 -1.66854,2.44326 -2.38365,-0.7747 1.60895,-0.83428 0.89389,-1.48977 -3.1583,1.13222 -2.74125,-1.19182 -3.81386,-0.17885 -4.64814,-0.53632 -1.60895,-2.1453 2.56245,1.13225 3.45631,-0.29797 1.31102,1.13225 3.75425,0.17885 1.19183,-2.80078 0.59587,2.44323 2.02616,-0.71509 -0.11932,-4.17141 -4.35017,0.89387 -4.82689,0.41715 -2.80076,-1.78775 -3.1584,0.53634 -3.57546,-2.74122 3.63507,1.60898 4.3502,0.0595 2.62198,1.72814 6.61462,-2.0261 1.78775,-1.13225 -1.013,-1.48979 -2.74125,0.59593 -5.3036,-2.08572 5.00566,0.71512 2.44324,-0.89386 0.23838,-2.68162 -4.52895,-0.23838 -5.78034,0.35755 -1.72817,-2.68162 2.1453,1.60898 5.12488,0.17885 3.87347,-0.5959 -0.53635,-3.63509 1.48974,0.23838 -1.54935,-2.32405 -2.08569,1.25141 0.59593,-1.43018 -1.48982,-2.38365 2.74125,0.29794 -0.65555,-1.9665 1.31101,0.41712 -0.17885,-1.3706 -2.26443,-0.29796 -4.70773,0.17885 2.3241,-1.01305 0.47668,-3.15836 1.19188,1.78773 2.20483,-0.47671 -0.23838,-1.66856 -2.1453,0.47673 -2.38365,-2.50284 -1.25141,-0.29796 -1.78775,1.13224 -2.1453,-2.62203 3.3371,0.83428 0.83428,-2.38365 1.60895,0.95347 2.1453,-0.65551 -1.54935,-1.48979 3.09872,1.01305 -1.31096,-3.93302 -2.3241,1.90692 -4.94608,-0.65551 3.51592,-0.47671 2.44324,-1.13225 -0.17885,-1.90691 -3.69464,0.5959 -1.90689,-0.5959 0.23838,-0.95348 1.78775,0.11932 1.9665,-0.11932 1.78775,-1.13224 -0.41713,-1.9665 -2.44323,-0.11906 -4.05227,-4.17141 3.15838,2.26449 2.44323,-0.41716 -1.4302,-2.0261 0.23838,-2.91997 -4.23102,1.4302 -5.06527,-1.13224 5.12488,-0.0595 3.63506,-2.26447 -0.47676,-1.90691 -2.26441,0.47671 -4.58853,0.17885 5.48234,-1.3706 1.31102,-0.77468 -0.23838,-4.35018 0.29794,-2.26446 -3.93298,-3.03916 -1.1919,0.35754 1.1919,-1.48978 1.31094,-1.01306 -0.59587,1.19183 0.47673,0.95347 1.31102,0.53632 -0.0593,0.65551 z"
         style="fill:#ff7e00;fill-opacity:1;stroke:none;stroke-width:0.66742325px;stroke-linecap:butt;stroke-linejoin:miter;stroke-opacity:1" />
      <path
         inkscape:connector-curvature="0"
         id="path4608"
         d="m 570.09834,76.079217 3.09877,0.536319 2.44323,-1.191827 4.58854,1.549372 -1.84736,-2.08569 -1.43016,0.297963 -1.43021,-0.178849 -2.26451,1.310992 z"
         style="fill:#000000;stroke:none;stroke-width:0.66742325px;stroke-linecap:butt;stroke-linejoin:miter;stroke-opacity:1" />
    </g>
  </g>
</svg>
