<?xml version="1.0" encoding="UTF-8" standalone="no"?>
<!-- Created with Inkscape (http://www.inkscape.org/) -->

<svg
   xmlns:dc="http://purl.org/dc/elements/1.1/"
   xmlns:cc="http://creativecommons.org/ns#"
   xmlns:rdf="http://www.w3.org/1999/02/22-rdf-syntax-ns#"
   xmlns:svg="http://www.w3.org/2000/svg"
   xmlns="http://www.w3.org/2000/svg"
   xmlns:sodipodi="http://sodipodi.sourceforge.net/DTD/sodipodi-0.dtd"
   xmlns:inkscape="http://www.inkscape.org/namespaces/inkscape"
   width="3840"
   height="1080"
   viewBox="0 0 1016 285.75001"
   version="1.1"
   id="svg8"
   inkscape:version="0.92.1 r15371"
   sodipodi:docname="minutes_to_midnight.svg"
   inkscape:export-filename="E:\General\My Projects\Art\Wallpapers\3840x1080\Linkin Park\minutes_to_midnight.png"
   inkscape:export-xdpi="96"
   inkscape:export-ydpi="96">
  <defs
     id="defs2" />
  <sodipodi:namedview
     id="base"
     pagecolor="#ffffff"
     bordercolor="#666666"
     borderopacity="1.0"
     inkscape:pageopacity="1"
     inkscape:pageshadow="2"
     inkscape:zoom="0.25"
     inkscape:cx="1308.278"
     inkscape:cy="458.59433"
     inkscape:document-units="px"
     inkscape:current-layer="layer1"
     showgrid="false"
     units="px"
     inkscape:snap-nodes="false"
     inkscape:window-width="1920"
     inkscape:window-height="1017"
     inkscape:window-x="-8"
     inkscape:window-y="-8"
     inkscape:window-maximized="1"
     inkscape:object-paths="true"
     inkscape:snap-intersection-paths="true" />
  <metadata
     id="metadata5">
    <rdf:RDF>
      <cc:Work
         rdf:about="">
        <dc:format>image/svg+xml</dc:format>
        <dc:type
           rdf:resource="http://purl.org/dc/dcmitype/StillImage" />
        <dc:title />
      </cc:Work>
    </rdf:RDF>
  </metadata>
  <g
     inkscape:label="Layer 1"
     inkscape:groupmode="layer"
     id="layer1"
     transform="translate(0,-11.249992)">
    <path
       style="fill:#000000;stroke:none;stroke-width:0.26458335px;stroke-linecap:butt;stroke-linejoin:miter;stroke-opacity:1"
       d="m 382.09613,249.83802 0.52916,-0.92604 4.82865,-0.26458 1.32292,-1.91823 1.4552,-1.52136 0.33073,-9.525 -0.46302,-0.39687 -0.13229,-6.94531 0.66146,-2.71198 -0.66146,-7.27605 0.39688,-1.71979 -2.97657,-5.68854 -0.13229,-3.30729 1.85209,-9.19427 1.91822,-12.36927 -0.0661,-1.91823 0.52917,-0.72761 -0.19844,-1.25677 1.5875,0.13229 0.33073,-1.05833 -0.99219,-1.71979 4.23333,-2.71198 0.19844,-0.7276 -0.0436,-1.1461 -0.8653,-1.33301 c 0,0 -0.79512,-1.21608 -0.81851,-1.30962 -0.0233,-0.0935 -0.25723,-1.33301 -0.25723,-1.33301 l 0.25723,-0.79513 0.3742,-0.0468 0.1637,0.11693 -0.0702,-2.6894 0.56126,-1.66041 1.7072,-1.59025 1.54347,-0.32741 1.44994,0.53788 1.42656,1.07576 0.304,1.33301 0.21048,1.8475 0.14031,1.30962 0.23386,-0.11693 0.35081,0.3274 -0.0702,1.1927 -0.49112,1.21607 -0.51448,0.44434 -0.51451,0.49111 -0.0701,0.81851 0.65481,1.26285 1.1693,1.0056 0.1637,0.67819 -0.11695,0.8419 2.0346,0.63143 2.66602,1.42655 1.44994,1.26285 0.81852,3.90547 0.79512,5.2151 0.43839,5.25102 -0.59531,4.23333 -0.72761,4.10104 -1.85208,4.43177 -1.45521,2.77813 0.46302,1.98437 v 1.91823 l 0.99219,1.91823 0.19844,10.18646 0.52916,1.32292 v 1.05833 l -0.39687,1.05833 0.59531,1.19063 0.26459,3.63802 0.59531,1.05833 0.0661,4.49792 0.8599,2.3151 0.39687,2.24896 0.0661,1.52136 0.7276,1.19062 0.59532,2.97656 -8.33438,0.1323 0.13229,-9.06198 0.0661,-4.56407 -0.7276,-1.85208 -0.52917,-0.66146 0.39687,-2.71198 -4.69635,-10.12031 -2.11667,2.3151 0.0662,3.04271 -0.59531,4.23334 -0.72761,2.57968 0.13229,4.0349 -0.66145,6.41615 -1.19063,3.24114 -0.52917,1.91823 -0.92604,1.85208 -10.31875,-0.79375 z"
       id="path5057"
       inkscape:connector-curvature="0" />
    <path
       style="fill:#000000;stroke:none;stroke-width:0.26458335px;stroke-linecap:butt;stroke-linejoin:miter;stroke-opacity:1"
       d="m 260.88216,253.12219 0.56126,-7.48354 3.27406,-6.7352 0.65482,-0.46772 v -1.77734 l 0.56126,-0.74835 0.56126,-8.69963 0.74834,-5.42557 -2.3386,-10.66405 0.37418,-3.3676 -0.18709,-4.49013 0.46773,-5.14494 1.96443,-2.80633 2.71277,-0.74835 2.05798,-2.24507 -0.0935,-1.96443 h 0.56126 v -1.4967 l -0.51451,-0.70159 v -0.93544 l 0.32743,-0.42095 0.0935,-2.22168 0.93546,-1.54348 0.81851,-0.58465 1.42656,0.0701 1.02896,0.74836 0.98224,0.46772 1.02896,0.93545 0.35082,2.12813 0.32739,0.56126 -0.42095,1.12254 -0.53787,0.67819 -0.58465,0.44434 v 2.31522 l 2.05795,0.37418 -1.1693,3.04019 3.15714,2.73617 0.93544,1.54348 0.0935,3.74178 0.0936,5.98683 0.88865,2.94665 v 4.63044 l 0.32742,3.18051 0.28062,1.12254 -1.02896,2.29183 -0.79513,0.60804 -0.46773,0.60804 -0.51451,3.13373 -1.12252,3.32083 -0.79513,5.61266 -0.42095,3.13373 -0.79512,2.05798 0.18708,1.30962 -0.8419,1.44994 -0.0935,9.21411 -6.17392,-0.28063 0.84188,-8.98026 V 242.271 l 0.46773,-1.30962 0.18708,-4.44336 -0.37417,-1.21607 0.60804,-1.12254 -0.0936,-2.47892 -0.65479,0.51449 -0.70159,2.43216 -0.65482,1.63702 -0.23384,1.26285 -0.88868,1.59025 -0.0936,1.3564 -0.88866,1.63702 -0.18708,1.59026 -1.02899,1.44994 -0.42096,2.15151 -0.46773,1.12254 -0.51448,4.91108 z"
       id="path5055"
       inkscape:connector-curvature="0" />
    <path
       style="fill:#000000;stroke:none;stroke-width:0.26458335px;stroke-linecap:butt;stroke-linejoin:miter;stroke-opacity:1"
       d="m 88.065343,194.00906 -2.15152,-1.07576 -2.24507,-0.23386 -0.88865,-0.60804 0.51448,-1.30962 -2.38538,-0.88867 1.63703,-5.8933 0.28062,-9.02702 0.93546,-3.0402 0.18709,-12.34785 0.74835,-3.74177 1.96442,-5.61266 2.47894,-2.57247 1.73056,-0.93545 1.44994,0.42095 1.54347,-2.47892 0.46773,0.14032 0.0936,-1.49671 -0.83275,-0.9826 -0.38034,-2.01745 0.21497,-0.71107 0.62839,0.16537 0.59531,-2.28203 0.92604,-1.81901 1.81902,-0.99219 1.40559,-0.38034 1.240237,-0.84336 0.74414,-0.26458 0.23151,1.63711 0.69453,1.15755 0.61185,1.45521 0.42995,1.91823 0.14883,0.92604 0.14882,0.28112 0.0331,1.28984 0.14469,0.13643 -0.21084,1.30224 -1.09141,1.57097 -1.52135,1.47174 -1.322917,1.07487 -0.39687,1.62058 1.124479,1.17408 -0.0331,1.83555 1.703248,1.57096 -0.0827,1.50482 1.67018,0.76068 0.84336,1.14102 -0.13229,0.95911 -2.54662,1.14102 -0.49286,8.94057 -0.14031,3.64822 -0.37417,5.98684 0.93543,7.24969 -1.01949,-0.25996 0.23151,1.75287 -0.0661,3.30729 1.09141,6.7138 3.30729,8.06979 -0.49609,3.20807 0.33073,0.76068 -1.35599,1.42214 0.19843,1.32291 -0.92604,0.99219 0.19844,9.49193 0.42995,0.76068 -0.62839,4.16718 0.39688,4.06797 0.69453,0.0992 -0.3638,1.09141 c 0,0 1.71979,1.65364 1.85208,1.78593 0.13229,0.1323 1.9513,1.02526 1.9513,1.02526 l -0.0992,0.95912 -2.44739,0.92604 -8.301307,-0.3638 0.23151,-2.4474 0.8599,-1.22369 -0.33073,-9.42579 -0.46302,-3.0427 -0.0331,-6.51537 0.92604,-4.53099 c 0,0 0.0661,-2.01745 0.0992,-2.28203 0.0331,-0.26458 0.0331,-2.64583 0.0331,-2.64583 l -1.42213,-1.12448 -1.05834,0.49609 -1.05833,3.96875 -2.41432,4.96094 -0.0661,1.98437 -0.95911,1.48828 -0.0661,4.46485 -0.29766,1.45521 0.0661,1.12448 0.16536,0.52916 -0.33073,0.79375 -0.0331,1.19063 0.56224,0.92604 -1.05833,1.48828 c 0,0 -0.23151,3.30729 -0.19844,3.43958 0.0331,0.1323 0.59531,0.8599 0.59531,0.8599 l 0.0992,0.95911 1.52136,0.99219 -0.29766,0.99219 2.4474,0.42995 0.26458,0.95911 -7.44141,0.23151 -4.69635,0.0992 0.85989,-3.73724 0.82683,-0.49609 0.56224,-7.67292 -0.59532,-1.48828 0.52917,-1.81901 0.19844,-3.00964 0.56224,-1.38906 -0.16537,-2.28203 0.36381,-1.12448 0.95911,-3.24114 -0.0992,-1.68672 0.89297,-1.12448 0.26458,-1.85209 -0.39687,-2.14974 0.85989,-1.71979 0.42995,-5.15937 z"
       id="path5053"
       inkscape:connector-curvature="0"
       sodipodi:nodetypes="ccccccccccccccccccccccccccccccccccccccccccccccccccccccccccccccccccccccccccccccccsccccccccccccccccccccccccccccccccccccccccc" />
    <path
       style="fill:#000000;stroke:none;stroke-width:0.26458335px;stroke-linecap:butt;stroke-linejoin:miter;stroke-opacity:1"
       d="m 921.73912,232.9689 2.47893,1.07576 5.79975,-0.18709 1.26285,-2.24506 -0.28064,-1.82412 0.60804,-1.73057 -1.63703,-3.36759 -1.12252,-1.63703 -0.37418,-2.94665 -4.02241,-9.49475 -2.19829,-4.44335 -1.12254,-1.91766 -0.65479,-4.5369 -2.94667,-7.9045 -0.42095,-3.32082 -1.30961,-2.47893 0.14031,-0.88867 4.44336,-0.79512 -2.05798,-9.12058 -0.74835,-2.8531 0.0468,-1.35639 2.19829,-5.00462 0.28062,-3.69501 -0.60804,-4.0224 0.23386,-7.62387 -0.60804,-4.58367 -0.79512,-1.87088 -1.68379,-1.40317 -2.99341,-0.23386 -2.33863,-1.02899 -0.93543,-0.8419 -0.60804,-0.70158 0.32739,-0.56126 0.37418,-0.32741 h 0.74837 l 0.0468,-0.88867 -0.32739,-0.60804 0.14031,-0.93544 -0.3274,-0.79513 0.56126,0.14032 0.60804,-0.37418 0.14031,-1.02899 -0.4677,-1.07576 -0.7016,-0.60804 v -0.74835 l 0.56129,-0.18709 0.32739,0.14032 -0.18708,-0.42095 -0.88869,-0.42095 -0.18708,-0.93545 -0.56126,-0.3274 -0.74835,-0.0468 -0.22813,-0.5736 0.38034,-0.34727 0.21498,-0.7276 -0.69453,0.28112 -0.81029,-0.24805 -0.1819,-0.69453 0.16536,-0.89297 -0.34726,-0.29765 0.0164,0.39687 -0.26458,0.1819 -0.82682,-0.0992 -0.81029,-0.7276 -0.11576,-0.69453 -1.00872,-0.0992 0.44648,0.23151 -0.14882,0.42995 -0.3142,0.21497 -0.71106,0.1819 -0.61185,-0.23151 -0.64493,-0.82682 -0.744,-0.0165 -1.02526,0.16537 -0.19844,0.41341 0.34726,-0.21497 0.42995,0.14882 0.39688,0.678 -1.00873,-0.0331 -0.95911,-0.16537 -0.21498,-0.38034 -1.43867,0.42995 -0.0164,0.44648 -0.95912,0.57878 0.3142,0.0496 0.16536,0.23151 -0.26458,0.29766 -0.42995,0.19843 -0.69453,0.89297 0.14883,0.41341 -0.19844,0.92605 0.0827,0.31419 -0.77721,0.38034 0.0827,0.57877 0.59531,0.21498 -0.23151,0.51263 -0.5457,0.31419 0.1819,0.39688 0.28112,0.5457 0.52917,0.0165 0.51263,0.38034 0.29765,1.32292 -0.41341,0.28112 0.47956,0.16536 c 0,0 0.33073,0.0827 0.33073,0.14883 0,0.0661 -0.0827,1.38907 -0.0827,1.38907 l 0.28112,-0.19844 0.33072,0.0661 0.0661,0.38034 0.59531,1.67018 0.59532,0.90951 0.1819,0.92604 -0.3142,0.59531 0.1819,0.0165 0.23152,0.8599 -0.1323,0.62838 0.38034,0.28112 h 0.8599 l 1.00872,0.0496 0.74414,-0.19844 0.678,-0.0165 0.23151,0.62838 -0.42995,2.23242 -0.64492,2.76159 -1.25677,2.57969 -0.99939,1.17341 v 7.01583 l 0.28065,5.28525 0.23386,0.8419 v 0.8419 l -0.51451,1.21608 -0.28061,2.5257 -0.28065,4.34981 -0.70157,3.27405 -0.32742,2.10475 -0.88865,1.07576 -0.7016,0.88867 0.14031,1.73057 0.79512,1.87089 1.07577,1.44993 -0.56126,2.15152 0.46773,2.24507 1.73056,7.06259 0.93544,5.19171 0.93546,5.19171 0.65479,4.34982 0.79513,4.06918 0.23386,1.30962 0.74835,1.12253 0.0468,1.49671 -0.60804,1.35639 0.65481,6.17393 0.70157,1.87088 0.3742,0.74836 -0.0468,1.30962 -0.46773,0.46772 -0.0935,1.44994 1.35638,1.26285 5.8933,-0.5145 1.82409,-0.51449 c 0,0 -0.0935,-3.08697 -0.0935,-3.41437 0,-0.32741 -0.32739,-2.89988 -0.32739,-2.89988 l -0.8419,-1.26284 0.0467,-1.16931 0.42095,-0.88867 -0.18709,-2.61924 -0.88865,-1.63703 -0.88869,-6.08038 -0.18708,-2.10474 -0.18709,-0.65482 -0.23387,-2.38538 -0.4677,-1.02898 -0.14033,-3.27405 c 0,0 -0.3274,-2.38539 -0.37418,-2.61925 -0.0468,-0.23386 0.18709,-2.80633 0.18709,-2.80633 l 2.24507,4.34981 1.59025,3.69501 1.35639,5.47234 0.28064,2.29184 1.1693,3.22727 1.59025,2.94665 0.74835,0.65481 0.46773,0.42095 0.70159,2.66602 0.46771,1.63702 0.74837,0.88867 0.0467,0.5145 -0.28061,0.70158 -0.46773,1.07576 0.23386,1.07576 z"
       id="path5093"
       inkscape:connector-curvature="0" />
    <path
       style="fill:#000000;stroke:none;stroke-width:0.26458335px;stroke-linecap:butt;stroke-linejoin:miter;stroke-opacity:1"
       d="m 788.1812,212.31899 -1.77734,-0.18709 -0.39756,0.86529 -0.65482,0.53788 -0.0233,1.37977 0.53787,1.05238 -0.11692,0.35079 -0.58465,-0.42095 -0.5379,-0.77174 -0.11692,0.95883 0.3274,0.88867 0.3742,0.74835 -0.72498,0.11693 -0.1637,-0.0935 -0.44434,-0.0702 -1.333,-2.19829 -0.0233,-3.39098 0.56126,-2.22168 0.8419,-3.46114 1.89429,-6.36102 1.19268,-3.1805 0.0233,-13.16637 1.52011,-6.75858 0.63143,-1.77734 1.77733,-2.03459 1.40317,-0.98222 v -2.19829 c 0,0 -0.86529,-1.49671 -0.91207,-1.59025 -0.0467,-0.0935 -0.77174,-1.96443 -0.77174,-1.96443 l -0.74835,-1.21608 -0.1403,-3.36759 0.1403,-2.6894 0.53788,-1.23947 1.37977,-0.98221 0.72499,-0.77174 0.1403,-0.30402 1.12255,0.0468 0.72496,0.30402 0.56126,0.5145 0.93544,-0.14032 0.8419,1.23946 0.95882,1.49671 0.23387,0.72497 0.0468,2.50231 -0.18709,1.61364 -0.25725,1.30962 -0.4911,0.77174 -0.0468,1.73057 0.18709,0.86529 0.60804,0.44433 0.3274,-0.25724 0.53789,0.81851 2.15152,0.67819 0.1403,0.25725 1.26286,0.30402 1.61364,1.75396 1.66042,2.47892 0.81852,3.60146 -0.14034,4.04579 -0.58465,4.98124 0.32742,6.64164 0.11692,5.02801 0.35079,3.85871 0.42095,6.80535 -2.97003,0.93544 -2.50232,0.42095 -0.39757,3.29744 c 0,0 -0.46111,1.93979 -0.46111,2.33666 0,0.39688 -0.66146,2.91042 -0.66146,2.91042 l 0.59531,1.38906 0.26459,0.8599 -0.39688,1.78593 0.79375,2.11667 0.59531,1.19063 -0.0661,1.38906 1.5875,5.68854 1.78594,8.66511 0.59531,1.38906 0.66146,0.52916 0.26458,0.8599 -0.13229,0.99219 -5.6224,1.52135 -5.29166,-0.13229 -2.97657,-0.19844 0.26459,-1.12448 0.39687,-0.26458 1.38906,0.0661 1.32292,-0.99219 -0.0661,-2.18281 -0.39687,-2.51355 -1.85208,-7.14375 -1.52136,-3.63802 -0.85989,-5.15937 -1.78594,-6.87917 -0.99219,-4.89479 z"
       id="path5091"
       inkscape:connector-curvature="0" />
    <path
       style="fill:#000000;stroke:none;stroke-width:0.26458335px;stroke-linecap:butt;stroke-linejoin:miter;stroke-opacity:1"
       d="m 590.55001,173.63801 -3.83646,0.79375 -0.33072,1.38907 -0.8599,1.32291 v 2.91042 l 0.66146,2.38125 1.19062,1.65365 0.39688,1.52135 -3.175,2.3151 -2.18282,0.92605 v 1.52135 l -0.7276,0.39687 -1.91823,3.50573 -1.5875,6.41615 -0.85989,0.92604 0.7276,1.45521 -0.46302,1.05833 0.19844,5.35782 0.59531,2.3151 -0.26458,3.04271 1.38906,2.71198 1.91823,4.49791 0.46302,0.39688 0.0661,1.52135 -0.19843,6.41615 0.26458,5.88698 2.24896,4.0349 c 0,0 0.33073,5.4901 0.46302,5.75468 0.13229,0.26459 0.52917,2.57969 0.52917,2.57969 l -0.92605,1.32292 -0.46302,3.77031 6.54844,0.26458 -0.46302,-2.77812 0.52917,-2.57969 -0.0661,-4.23333 0.26458,-3.96875 -0.46302,-1.71979 0.46302,-1.5875 v -2.84428 -5.09323 l 0.39688,-1.52135 0.7276,0.99219 0.26459,1.71979 1.12448,4.0349 1.78593,7.14375 -0.33073,2.77812 1.05834,1.05833 0.85989,6.54844 v 3.50573 l 6.74688,-0.0661 -0.33073,-2.38125 -1.32292,-1.25678 -0.39687,-10.64947 -0.66146,-1.32292 0.0661,-3.24115 -0.72761,-1.19062 -0.59531,-1.65365 0.92604,-5.4901 0.0662,-3.30729 -0.26459,-3.50573 -0.13229,-4.23334 0.26458,-0.85989 1.12448,-0.39688 0.52917,-1.52135 1.19063,-0.0661 1.32291,-2.24896 v -1.4552 l 1.19063,-2.4474 0.59531,-3.04271 0.0661,-3.63802 -0.72761,-2.77812 -1.65364,-3.83646 -2.4474,-5.29167 -2.11667,-0.92604 -1.85208,-0.99219 -1.05833,0.33073 -1.19063,-0.19844 -0.79375,-3.30729 -0.99219,-0.0661 -0.0661,-1.5875 0.66146,-0.66145 -0.1323,-1.78594 -0.92604,-2.57969 -0.85989,-2.84427 z m 10.09447,30.08757 0.65476,0.74828 0.0465,1.49655 -0.70125,1.49707 z"
       id="path5077"
       inkscape:connector-curvature="0" />
    <text
       xml:space="preserve"
       style="font-style:normal;font-variant:normal;font-weight:normal;font-stretch:normal;font-size:8.12093163px;line-height:0.80000001;font-family:Ubuntu;-inkscape-font-specification:Ubuntu;text-align:center;letter-spacing:0px;word-spacing:0px;text-anchor:middle;fill:#000000;fill-opacity:1;stroke:none;stroke-width:0.50755823"
       x="442.16904"
       y="56.212418"
       id="text4761"
       transform="scale(1.1535755,0.86687)"><tspan
         sodipodi:role="line"
         id="tspan4759"
         x="442.16904"
         y="56.212418"
         style="font-style:normal;font-variant:normal;font-weight:normal;font-stretch:condensed;line-height:0.80000001;font-family:Arial;-inkscape-font-specification:'Arial Condensed';stroke-width:0.50755823">MINUTES T O MIDNIGHT</tspan></text>
    <path
       inkscape:connector-curvature="0"
       style="opacity:1;vector-effect:none;fill:#000000;fill-opacity:1;stroke:none;stroke-width:0.26458335;stroke-linecap:butt;stroke-linejoin:miter;stroke-miterlimit:4;stroke-dasharray:none;stroke-dashoffset:0;stroke-opacity:1"
       d="m 466.53101,51.740038 v 18.909441 h 13.43019 v -5.584672 h -6.81561 V 51.740038 Z"
       id="rect4799" />
    <path
       inkscape:connector-curvature="0"
       style="opacity:1;vector-effect:none;fill:#000000;fill-opacity:1;stroke:none;stroke-width:0.26458335;stroke-linecap:butt;stroke-linejoin:miter;stroke-miterlimit:4;stroke-dasharray:none;stroke-dashoffset:0;stroke-opacity:1"
       d="m 480.61061,51.740038 v 18.90944 h 6.61456 v -18.90944 z"
       id="rect4799-1"
       sodipodi:nodetypes="ccccc" />
    <path
       inkscape:connector-curvature="0"
       style="opacity:1;vector-effect:none;fill:#000000;fill-opacity:1;stroke:none;stroke-width:0.26458335;stroke-linecap:butt;stroke-linejoin:miter;stroke-miterlimit:4;stroke-dasharray:none;stroke-dashoffset:0;stroke-opacity:1"
       d="m 488.21739,51.740038 v 18.90944 h 6.61456 v -9.791061 l 12.33143,19.749257 V 51.74012 h -6.33095 v 9.87425 l -6.00048,-9.87425 z"
       id="rect4799-1-1"
       sodipodi:nodetypes="cccccccccc" />
    <path
       inkscape:connector-curvature="0"
       style="opacity:1;vector-effect:none;fill:#000000;fill-opacity:1;stroke:none;stroke-width:0.26458335;stroke-linecap:butt;stroke-linejoin:miter;stroke-miterlimit:4;stroke-dasharray:none;stroke-dashoffset:0;stroke-opacity:1"
       d="m 508.806,51.74004 v 18.90944 l 6.61456,-1.16e-4 v -8.090052 l 4.5357,8.090052 h 7.34246 l -5.68799,-9.776841 5.68799,-9.132401 h -7.13742 l -4.74074,7.984369 v -7.984369 z"
       id="rect4799-1-0"
       sodipodi:nodetypes="cccccccccccc" />
    <path
       inkscape:connector-curvature="0"
       style="opacity:1;vector-effect:none;fill:#000000;fill-opacity:1;stroke:none;stroke-width:0.26458335;stroke-linecap:butt;stroke-linejoin:miter;stroke-miterlimit:4;stroke-dasharray:none;stroke-dashoffset:0;stroke-opacity:1"
       d="m 527.89379,51.74004 v 18.90944 h 6.61456 V 51.74004 Z"
       id="rect4799-1-8"
       sodipodi:nodetypes="ccccc" />
    <path
       inkscape:connector-curvature="0"
       style="opacity:1;vector-effect:none;fill:#000000;fill-opacity:1;stroke:none;stroke-width:0.26458335;stroke-linecap:butt;stroke-linejoin:miter;stroke-miterlimit:4;stroke-dasharray:none;stroke-dashoffset:0;stroke-opacity:1"
       d="m 535.31055,51.74004 v 18.909441 h 6.61458 v -9.788552 l 5.91386,9.788552 h 6.61458 V 51.74004 h -6.61458 V 61.862935 L 541.92513,51.74004 Z"
       id="rect4799-1-8-4" />
    <path
       inkscape:connector-curvature="0"
       style="opacity:1;vector-effect:none;fill:#000000;fill-opacity:1;stroke:none;stroke-width:0.33945826;stroke-linecap:butt;stroke-linejoin:miter;stroke-miterlimit:4;stroke-dasharray:none;stroke-dashoffset:0;stroke-opacity:1"
       d="m 530.44208,71.772776 v 24.201107 l 8.50731,-1.49e-4 V 85.619741 l 5.83358,10.353993 h 9.4435 l -7.3156,-12.512817 7.3156,-11.688036 h -9.17979 l -6.09729,10.218735 V 71.772881 Z"
       id="rect4799-1-0-7"
       sodipodi:nodetypes="cccccccccccc" />
    <path
       style="opacity:1;vector-effect:none;fill:#000000;fill-opacity:1;stroke:none;stroke-width:0.33945826;stroke-linecap:butt;stroke-linejoin:miter;stroke-miterlimit:4;stroke-dasharray:none;stroke-dashoffset:0;stroke-opacity:1"
       d="m 476.30252,71.750185 c -0.7751,-0.0079 -1.26402,0.02273 -1.26402,0.02273 l -8.50749,1.24e-4 V 95.97402 l 8.50749,-5.29e-4 v -7.144784 c 0,0 6.69147,0.01394 9.84488,-2.669088 3.15341,-2.683039 3.31499,-7.980313 0.64648,-11.42876 -2.00141,-2.586336 -6.90208,-2.956993 -9.22734,-2.980698 z m -0.67337,6.57066 c 1.06392,0.02318 3.19596,0.297101 3.2298,2.117183 0.0447,2.404443 -3.82045,2.305286 -3.82045,2.305286 v -4.410068 c 0,0 0.23603,-0.02013 0.59065,-0.01241 z"
       id="rect4799-1-0-7-0"
       inkscape:connector-curvature="0"
       sodipodi:nodetypes="ccccccsccccccc" />
    <path
       inkscape:connector-curvature="0"
       style="opacity:1;vector-effect:none;fill:#000000;fill-opacity:1;stroke:none;stroke-width:0.33983478;stroke-linecap:butt;stroke-linejoin:miter;stroke-miterlimit:4;stroke-dasharray:none;stroke-dashoffset:0;stroke-opacity:1"
       d="m 518.5992,71.750185 c -0.77681,-0.0079 -1.26683,0.02273 -1.26683,0.02273 H 508.806 v 24.201041 l 8.52637,-4.65e-4 v -7.144785 l 12.59207,23.803024 V 95.923233 l -4.99978,-8.441552 c 0.82599,-0.389262 1.668,-0.815437 2.27448,-1.322062 3.16041,-2.683039 3.32235,-7.980312 0.64793,-11.428759 -2.00586,-2.586336 -6.9174,-2.956994 -9.24783,-2.980698 z m -0.67486,6.57066 c 1.06627,0.02318 3.20305,0.297101 3.23696,2.117183 0.0448,2.404443 -3.82893,2.305285 -3.82893,2.305285 v -4.410067 c 0,0 0.23657,-0.02013 0.59197,-0.01241 z"
       id="rect4799-1-0-7-0-5"
       sodipodi:nodetypes="ccccccccccccccccccc" />
    <path
       inkscape:connector-curvature="0"
       style="fill:#000000;stroke:none;stroke-width:0.26021123px;stroke-linecap:butt;stroke-linejoin:miter;stroke-opacity:1"
       d="m 484.5642,71.772924 4.61434,5.117518 -6.42424,19.03553 h 8.86713 l 0.63349,-3.227192 h 6.55969 l 0.49806,3.320728 h 8.32373 l -7.73604,-24.246584 z m 10.56393,7.3241 2.23272,8.108032 h -4.46594 z"
       id="path4968" />
    <path
       style="fill:#f5f5f5;fill-opacity:1;stroke:none;stroke-width:0.26458335px;stroke-linecap:butt;stroke-linejoin:miter;stroke-opacity:1"
       d="m -5.805223,226.65466 16.282189,-5.23849 11.973675,5.23849 20.95393,-0.74836 11.998669,4.93786 12.783933,0.5276 6.379818,3.95707 34.738189,1.22823 6.6898,5.81305 16.4638,-2.99342 3.74177,1.49671 12.72204,0.74835 8.23189,5.23848 25.44406,1.49671 9.72862,-2.99341 5.23848,2.99341 14.21874,-1.49671 12.72203,4.49013 14.96709,-3.74177 17.96052,3.74177 11.97368,-0.74835 20.20557,4.49013 35.17268,-2.24507 h 8.98024 l 18.70888,-1.49671 11.22532,0.74836 6.73518,0.74835 10.47697,-3.74177 26.94077,2.99342 11.97367,-3.74178 11.97367,3.74178 23.19901,0.74835 31.43088,-1.49671 11.22532,2.99342 16.46381,0.74836 13.47038,1.49671 9.72863,-3.74178 8.98025,2.24507 15.71545,-3.74178 20.20557,2.24507 6.73518,-1.49671 15.71546,2.24506 5.23849,-2.99342 27.68912,3.74178 9.72862,-2.24507 24.69568,-1.49671 7.48356,0.74836 6.7352,-3.74178 h 21.70227 l 29.93419,-0.74835 29.18584,-3.74177 22.14179,3.87373 13.03089,-0.13196 15.71543,-4.49013 13.50563,-2.10186 6.8809,2.02542 18.52791,-1.42027 19.35866,-2.55114 27.85947,-4.70839 11.98879,-0.62478 5.1062,-2.01809 8.54188,0.52916 7.08666,-5.23458 15.98004,0.52917 10.57592,-2.98324 26.70954,-0.15027 6.73518,-6.73519 h 5.98685 l 11.2253,-3.74177 11.2253,-1.49671 v 98.03447 H -5.805223 Z"
       id="path5051"
       inkscape:connector-curvature="0"
       sodipodi:nodetypes="ccccccccccccccccccccccccccccccccccccccccccccccccccccccccccccccccccccccccc" />
  </g>
</svg>
